<svg version="1.2" baseProfile="tiny-ps" xmlns="http://www.w3.org/2000/svg" viewBox="0 0 46 46" width="64" height="64">
	<title>blobnomcookie-svg</title>
	<style>
		tspan { white-space:pre }
		.shp0 { fill: #b99379 } 
		.shp1 { fill: #865c51 } 
	</style>
	<g>
		<g>
			<g>
				<g>
				</g>
			</g>
		</g>
	</g>
	<g>
		<g>
			<path class="shp0" d="M45.06 27.03C46.12 20.96 44.89 15.39 41.36 10.34C37.82 5.28 33.03 2.22 26.97 1.14C20.91 0.07 15.35 1.31 10.31 4.85C5.26 8.39 2.2 13.2 1.14 19.27C0.07 25.34 1.3 30.9 4.84 35.96C8.37 41.02 13.17 44.08 19.23 45.15C25.29 46.23 30.84 44.99 35.89 41.45C40.93 37.91 43.99 33.1 45.06 27.03Z"/>
		</g>
	</g>
	<g>
		<g>
			<path class="shp1" d="M24.72 25.77C25.65 25.12 26.22 24.23 26.42 23.11C26.62 21.97 26.39 20.94 25.73 20C25.07 19.07 24.18 18.5 23.06 18.3C21.93 18.1 20.9 18.33 19.96 18.98C19.03 19.64 18.46 20.53 18.27 21.67C18.07 22.79 18.3 23.82 18.95 24.75C19.6 25.7 20.49 26.27 21.62 26.47C22.74 26.67 23.78 26.43 24.72 25.77Z"/>
		</g>
	</g>
	<g>
		<g>
			<path class="shp1" d="M18.04 37.97C19.07 37.25 19.69 36.27 19.9 35.04C20.12 33.8 19.87 32.67 19.16 31.64C18.43 30.62 17.45 29.99 16.22 29.78C14.98 29.56 13.85 29.81 12.83 30.52C11.81 31.24 11.19 32.22 10.97 33.46C10.75 34.69 11 35.82 11.72 36.85C12.43 37.88 13.41 38.51 14.65 38.73C15.88 38.95 17.01 38.69 18.04 37.97Z"/>
		</g>
	</g>
	<g>
		<g>
			<path class="shp1" d="M37.62 26.04C38.5 25.43 39.03 24.59 39.22 23.54C39.4 22.48 39.19 21.5 38.58 20.62C37.95 19.74 37.11 19.21 36.06 19.03C35 18.84 34.03 19.05 33.15 19.67C32.28 20.28 31.74 21.12 31.56 22.19C31.37 23.24 31.59 24.21 32.2 25.09C32.81 25.97 33.65 26.51 34.71 26.7C35.76 26.89 36.73 26.67 37.62 26.04Z"/>
		</g>
	</g>
	<g>
		<g>
			<path class="shp1" d="M10.82 26.6C11.41 26.19 11.76 25.63 11.89 24.93C12.01 24.22 11.87 23.58 11.46 22.99C11.04 22.4 10.48 22.05 9.78 21.92C9.08 21.8 8.43 21.94 7.85 22.35C7.26 22.76 6.91 23.32 6.78 24.03C6.66 24.73 6.8 25.38 7.21 25.96C7.62 26.55 8.18 26.91 8.88 27.04C9.59 27.16 10.23 27.02 10.82 26.6Z"/>
		</g>
	</g>
	<g>
		<g>
			<path class="shp1" d="M32.72 14.48C33.31 14.07 33.66 13.52 33.78 12.82C33.9 12.11 33.76 11.47 33.36 10.89C32.94 10.31 32.39 9.95 31.69 9.83C30.99 9.71 30.35 9.85 29.77 10.26C29.19 10.66 28.83 11.22 28.71 11.92C28.59 12.62 28.73 13.26 29.14 13.84C29.54 14.43 30.1 14.79 30.8 14.91C31.5 15.03 32.14 14.89 32.72 14.48Z"/>
		</g>
	</g>
	<g>
		<g>
			<path class="shp1" d="M19.14 12.28C19.99 11.68 20.51 10.87 20.69 9.84C20.88 8.81 20.67 7.86 20.07 7C19.46 6.15 18.65 5.63 17.62 5.44C16.58 5.26 15.64 5.47 14.79 6.07C13.93 6.67 13.41 7.49 13.23 8.52C13.05 9.55 13.26 10.49 13.86 11.35C14.45 12.21 15.27 12.74 16.3 12.92C17.33 13.1 18.28 12.89 19.14 12.28Z"/>
		</g>
	</g>
	<g>
		<g>
			<path class="shp1" d="M32.82 14.63C33.41 14.22 33.76 13.67 33.88 12.97C34 12.26 33.86 11.62 33.46 11.04C33.04 10.46 32.49 10.1 31.79 9.98C31.09 9.86 30.45 10 29.87 10.41C29.29 10.81 28.93 11.37 28.81 12.07C28.69 12.77 28.83 13.41 29.24 13.99C29.64 14.58 30.2 14.94 30.9 15.06C31.6 15.18 32.24 15.04 32.82 14.63Z"/>
		</g>
	</g>
	<g>
		<g>
			<path class="shp1" d="M33.62 39.29C34.5 38.68 35.03 37.84 35.22 36.79C35.4 35.73 35.19 34.75 34.58 33.87C33.95 32.99 33.11 32.46 32.06 32.28C31 32.09 30.03 32.3 29.15 32.92C28.28 33.53 27.74 34.37 27.56 35.44C27.37 36.49 27.59 37.46 28.2 38.34C28.81 39.22 29.65 39.76 30.71 39.95C31.76 40.14 32.73 39.92 33.62 39.29Z"/>
		</g>
	</g>
	<g>
	</g>
	<g>
		<g>
		</g>
	</g>
	<g>
		<g>
		</g>
	</g>
	<g>
		<g>
		</g>
	</g>
</svg>